{
	"asset":{
		"generator":"Khronos glTF Blender I/O v4.3.47",
		"version":"2.0"
	},
	"scene":0,
	"scenes":[
		{
			"name":"Scene",
			"nodes":[
				1,
				3,
				5,
				7,
				9,
				11
			]
		}
	],
	"nodes":[
		{
			"mesh":0,
			"name":"Circle",
			"rotation":[
				0,
				-0.5877853035926819,
				0,
				0.80901700258255
			]
		},
		{
			"children":[
				0
			],
			"name":"Empty",
			"rotation":[
				0,
				0.5877853035926819,
				0,
				0.80901700258255
			]
		},
		{
			"mesh":1,
			"name":"Circle.001",
			"rotation":[
				0,
				-0.5877853035926819,
				0,
				0.80901700258255
			]
		},
		{
			"children":[
				2
			],
			"name":"Empty.001",
			"rotation":[
				-0.15388403832912445,
				0.1960233598947525,
				-0.5127468109130859,
				0.821574866771698
			],
			"translation":[
				0.30006885528564453,
				0,
				0
			]
		},
		{
			"mesh":2,
			"name":"Circle.002",
			"rotation":[
				0,
				-0.5877853035926819,
				0,
				0.80901700258255
			]
		},
		{
			"children":[
				4
			],
			"name":"Empty.002",
			"rotation":[
				-0.30298057198524475,
				0.6099646091461182,
				0.25423139333724976,
				0.6866675615310669
			],
			"translation":[
				0.02528667449951172,
				0,
				0
			]
		},
		{
			"mesh":3,
			"name":"Circle.003",
			"rotation":[
				0,
				-0.5877853035926819,
				0,
				0.80901700258255
			]
		},
		{
			"children":[
				6
			],
			"name":"Empty.003",
			"rotation":[
				0.3039875328540802,
				0.4639763832092285,
				-0.2550763785839081,
				0.7919933795928955
			],
			"translation":[
				0.02528667449951172,
				0,
				0
			]
		},
		{
			"mesh":4,
			"name":"Circle.004",
			"rotation":[
				0,
				-0.5877853035926819,
				0,
				0.80901700258255
			]
		},
		{
			"children":[
				8
			],
			"name":"Empty.004",
			"rotation":[
				-0.04492143914103508,
				0.8560889363288879,
				-0.37985819578170776,
				0.34756526350975037
			],
			"translation":[
				0.02528667449951172,
				0,
				0
			]
		},
		{
			"mesh":5,
			"name":"Circle.005",
			"rotation":[
				0,
				-0.5877853035926819,
				0,
				0.80901700258255
			]
		},
		{
			"children":[
				10
			],
			"name":"Empty.005",
			"rotation":[
				0.11516541242599487,
				-0.8679795861244202,
				-0.3785099983215332,
				0.30013126134872437
			],
			"translation":[
				0.02528667449951172,
				0,
				0
			]
		}
	],
	"materials":[
		{
			"doubleSided":true,
			"name":"flower",
			"pbrMetallicRoughness":{
				"baseColorTexture":{
					"index":0
				},
				"metallicFactor":0,
				"roughnessFactor":0.5
			}
		}
	],
	"meshes":[
		{
			"name":"Circle",
			"primitives":[
				{
					"attributes":{
						"POSITION":0,
						"NORMAL":1,
						"TEXCOORD_0":2
					},
					"indices":3,
					"material":0
				}
			]
		},
		{
			"name":"Circle.001",
			"primitives":[
				{
					"attributes":{
						"POSITION":4,
						"NORMAL":5,
						"TEXCOORD_0":6
					},
					"indices":3,
					"material":0
				}
			]
		},
		{
			"name":"Circle.002",
			"primitives":[
				{
					"attributes":{
						"POSITION":7,
						"NORMAL":8,
						"TEXCOORD_0":9
					},
					"indices":3,
					"material":0
				}
			]
		},
		{
			"name":"Circle.003",
			"primitives":[
				{
					"attributes":{
						"POSITION":10,
						"NORMAL":11,
						"TEXCOORD_0":12
					},
					"indices":3,
					"material":0
				}
			]
		},
		{
			"name":"Circle.004",
			"primitives":[
				{
					"attributes":{
						"POSITION":13,
						"NORMAL":14,
						"TEXCOORD_0":15
					},
					"indices":3,
					"material":0
				}
			]
		},
		{
			"name":"Circle.005",
			"primitives":[
				{
					"attributes":{
						"POSITION":16,
						"NORMAL":17,
						"TEXCOORD_0":18
					},
					"indices":3,
					"material":0
				}
			]
		}
	],
	"textures":[
		{
			"sampler":0,
			"source":0
		}
	],
	"images":[
		{
			"mimeType":"image/png",
			"name":"UV texture",
			"uri":"UV%20texture.png"
		}
	],
	"accessors":[
		{
			"bufferView":0,
			"componentType":5126,
			"count":394,
			"max":[
				0.09412360191345215,
				5.613061904907227,
				1.0135263204574585
			],
			"min":[
				-2.3481545448303223,
				0.0036013126373291016,
				-1.0739881992340088
			],
			"type":"VEC3"
		},
		{
			"bufferView":1,
			"componentType":5126,
			"count":394,
			"type":"VEC3"
		},
		{
			"bufferView":2,
			"componentType":5126,
			"count":394,
			"type":"VEC2"
		},
		{
			"bufferView":3,
			"componentType":5123,
			"count":2016,
			"type":"SCALAR"
		},
		{
			"bufferView":4,
			"componentType":5126,
			"count":394,
			"max":[
				0.09412360191345215,
				5.613061904907227,
				1.0135263204574585
			],
			"min":[
				-2.3481545448303223,
				0.0036013126373291016,
				-1.0739881992340088
			],
			"type":"VEC3"
		},
		{
			"bufferView":5,
			"componentType":5126,
			"count":394,
			"type":"VEC3"
		},
		{
			"bufferView":6,
			"componentType":5126,
			"count":394,
			"type":"VEC2"
		},
		{
			"bufferView":7,
			"componentType":5126,
			"count":394,
			"max":[
				0.09412360191345215,
				5.613061904907227,
				1.0135263204574585
			],
			"min":[
				-2.3481545448303223,
				0.0036013126373291016,
				-1.0739881992340088
			],
			"type":"VEC3"
		},
		{
			"bufferView":8,
			"componentType":5126,
			"count":394,
			"type":"VEC3"
		},
		{
			"bufferView":9,
			"componentType":5126,
			"count":394,
			"type":"VEC2"
		},
		{
			"bufferView":10,
			"componentType":5126,
			"count":394,
			"max":[
				0.09412360191345215,
				5.613061904907227,
				1.0135263204574585
			],
			"min":[
				-2.3481545448303223,
				0.0036013126373291016,
				-1.0739881992340088
			],
			"type":"VEC3"
		},
		{
			"bufferView":11,
			"componentType":5126,
			"count":394,
			"type":"VEC3"
		},
		{
			"bufferView":12,
			"componentType":5126,
			"count":394,
			"type":"VEC2"
		},
		{
			"bufferView":13,
			"componentType":5126,
			"count":394,
			"max":[
				0.09412360191345215,
				5.613061904907227,
				1.0135263204574585
			],
			"min":[
				-2.3481545448303223,
				0.0036013126373291016,
				-1.0739881992340088
			],
			"type":"VEC3"
		},
		{
			"bufferView":14,
			"componentType":5126,
			"count":394,
			"type":"VEC3"
		},
		{
			"bufferView":15,
			"componentType":5126,
			"count":394,
			"type":"VEC2"
		},
		{
			"bufferView":16,
			"componentType":5126,
			"count":394,
			"max":[
				0.09412360191345215,
				5.613061904907227,
				1.0135263204574585
			],
			"min":[
				-2.3481545448303223,
				0.0036013126373291016,
				-1.0739881992340088
			],
			"type":"VEC3"
		},
		{
			"bufferView":17,
			"componentType":5126,
			"count":394,
			"type":"VEC3"
		},
		{
			"bufferView":18,
			"componentType":5126,
			"count":394,
			"type":"VEC2"
		}
	],
	"bufferViews":[
		{
			"buffer":0,
			"byteLength":4728,
			"byteOffset":0,
			"target":34962
		},
		{
			"buffer":0,
			"byteLength":4728,
			"byteOffset":4728,
			"target":34962
		},
		{
			"buffer":0,
			"byteLength":3152,
			"byteOffset":9456,
			"target":34962
		},
		{
			"buffer":0,
			"byteLength":4032,
			"byteOffset":12608,
			"target":34963
		},
		{
			"buffer":0,
			"byteLength":4728,
			"byteOffset":16640,
			"target":34962
		},
		{
			"buffer":0,
			"byteLength":4728,
			"byteOffset":21368,
			"target":34962
		},
		{
			"buffer":0,
			"byteLength":3152,
			"byteOffset":26096,
			"target":34962
		},
		{
			"buffer":0,
			"byteLength":4728,
			"byteOffset":29248,
			"target":34962
		},
		{
			"buffer":0,
			"byteLength":4728,
			"byteOffset":33976,
			"target":34962
		},
		{
			"buffer":0,
			"byteLength":3152,
			"byteOffset":38704,
			"target":34962
		},
		{
			"buffer":0,
			"byteLength":4728,
			"byteOffset":41856,
			"target":34962
		},
		{
			"buffer":0,
			"byteLength":4728,
			"byteOffset":46584,
			"target":34962
		},
		{
			"buffer":0,
			"byteLength":3152,
			"byteOffset":51312,
			"target":34962
		},
		{
			"buffer":0,
			"byteLength":4728,
			"byteOffset":54464,
			"target":34962
		},
		{
			"buffer":0,
			"byteLength":4728,
			"byteOffset":59192,
			"target":34962
		},
		{
			"buffer":0,
			"byteLength":3152,
			"byteOffset":63920,
			"target":34962
		},
		{
			"buffer":0,
			"byteLength":4728,
			"byteOffset":67072,
			"target":34962
		},
		{
			"buffer":0,
			"byteLength":4728,
			"byteOffset":71800,
			"target":34962
		},
		{
			"buffer":0,
			"byteLength":3152,
			"byteOffset":76528,
			"target":34962
		}
	],
	"samplers":[
		{
			"magFilter":9729,
			"minFilter":9987
		}
	],
	"buffers":[
		{
			"byteLength":79680,
			"uri":"Flower.bin"
		}
	]
}
